<?xml version="1.0" encoding="iso-8859-1"?>
<!-- Generator: Adobe Illustrator 19.0.0, SVG Export Plug-In . SVG Version: 6.00 Build 0)  -->
<svg version="1.1" id="Layer_1" xmlns="http://www.w3.org/2000/svg" xmlns:xlink="http://www.w3.org/1999/xlink" x="0px" y="0px"
	 viewBox="0 0 511.117 511.117" style="enable-background:new 0 0 511.117 511.117;" xml:space="preserve">
<path style="fill:#ffe400;" d="M256,493.903c-0.883,0-2.648,0-3.531,0c-0.883,0-1.766,0-2.648,0
	c-30.014,0-45.903-8.828-64.441-22.069c-13.241-8.828-25.6-17.655-39.724-20.303c-7.945-0.883-15.007-1.766-22.069-1.766
	c-12.359,0-22.069,1.766-29.131,3.531c-4.414,0.883-7.945,1.766-10.593,1.766s-6.179-0.883-7.945-5.297
	c-0.883-4.414-1.766-7.945-2.648-11.476c-1.766-9.71-3.531-15.89-7.945-16.772C16.772,414.455,3.531,403.862,0,396.8
	c0-1.766,0-2.648,0-3.531c0-2.648,1.766-5.297,4.414-5.297c74.152-12.359,107.697-88.276,108.579-90.924l0,0
	c4.414-8.828,5.297-16.772,2.648-23.834c-5.297-12.359-22.069-17.655-32.662-21.186c-2.648-0.883-5.297-1.766-7.062-2.648
	c-22.069-8.828-23.834-17.655-22.952-22.069c1.766-7.945,11.476-13.241,20.303-13.241c2.648,0,4.414,0,6.179,0.883
	c9.71,4.414,18.538,7.062,26.483,7.062c10.593,0,15.007-4.414,15.89-5.297c0-5.297-0.883-10.593-0.883-15.89
	c-2.648-35.31-5.297-78.566,6.179-103.283C159.779,23.393,230.4,17.214,251.586,17.214c0.883,0,8.828,0,8.828,0h0.883
	c21.186,0,91.807,6.179,125.352,80.331c11.476,24.717,7.945,68.855,6.179,103.283v1.766c0,5.297-0.883,9.71-0.883,14.124
	c0.883,0.883,4.414,4.414,14.124,5.297l0,0c7.062,0,15.89-2.648,24.717-7.062c2.648-0.883,5.297-1.766,7.945-1.766
	c3.531,0,6.179,0.883,8.828,1.766l0,0c7.062,2.648,12.359,7.945,12.359,13.241c0,5.297-3.531,13.241-22.952,20.303
	c-1.766,0.883-4.414,1.766-7.062,2.648c-10.593,3.531-27.365,8.828-32.662,21.186c-2.648,6.179-1.766,14.124,2.648,23.834l0,0
	c1.766,3.531,32.662,79.448,106.814,91.807c2.648,0.883,4.414,2.648,4.414,5.297c0,0.883,0,1.766-0.883,3.531
	c-2.648,7.062-15.007,16.772-63.559,24.717c-3.531,0.883-5.297,5.297-7.945,16.772c-0.883,3.531-1.766,7.945-2.648,11.476
	s-3.531,5.297-7.062,5.297h-0.883c-2.648,0-6.179-0.883-10.593-1.766c-7.945-1.766-17.655-2.648-29.131-2.648
	c-7.062,0-14.124,0.883-21.186,1.766c-14.124,2.648-26.483,11.476-39.724,20.303C309.848,485.959,286.014,493.903,256,493.903"/>
<g>
</g>
<g>
</g>
<g>
</g>
<g>
</g>
<g>
</g>
<g>
</g>
<g>
</g>
<g>
</g>
<g>
</g>
<g>
</g>
<g>
</g>
<g>
</g>
<g>
</g>
<g>
</g>
<g>
</g>
</svg>
